<svg id="Capa_1" data-name="Capa 1" xmlns="http://www.w3.org/2000/svg" xmlns:xlink="http://www.w3.org/1999/xlink" viewBox="0 0 50 50"><defs><style>.cls-1{fill:url(#Degradado_sin_nombre_351);}.cls-2{fill:#ededed;}</style><radialGradient id="Degradado_sin_nombre_351" cx="25" cy="25" r="24.25" gradientUnits="userSpaceOnUse"><stop offset="0" stop-color="#3c3c3b"/><stop offset="1" stop-color="#474747"/></radialGradient></defs><circle class="cls-1" cx="25" cy="25" r="24.25"/><path class="cls-2" d="M26.45,13a16,16,0,0,1-3.61,3.26c-1.51,1.14-4.25,2.75-4.54,4.8-.4,2.87,2.78,3.37,4.74,4.28a31.06,31.06,0,0,1,5.65,3.45l-.51-3.92A126.93,126.93,0,0,0,18.28,34c-2.25,2.3,1.28,5.84,3.54,3.54a123.39,123.39,0,0,1,9.9-9.09c1.38-1.14.64-3.05-.51-3.92a30.24,30.24,0,0,0-4.46-2.87c-.86-.45-1.75-.85-2.65-1.22a15,15,0,0,1-1.94-.79l.89.9-.12-.17.34,1.26v-.2l-.34,1.26c.66-1,2.52-2.12,3.62-3a19.91,19.91,0,0,0,4.23-4.17,2.52,2.52,0,0,0-.9-3.42,2.56,2.56,0,0,0-3.42.9Z"/></svg>