<svg id="Capa_1" data-name="Capa 1" xmlns="http://www.w3.org/2000/svg" viewBox="0 0 50 50"><defs><style>.cls-1{fill:#fff;stroke:#fff;stroke-miterlimit:10;stroke-width:3px;}</style></defs><circle class="cls-1" cx="25" cy="25" r="12.27"/><path class="cls-1" d="M19.71,47.05a1.22,1.22,0,1,0,1.65-1.81,10.19,10.19,0,0,1-1-1L20.14,44a6.24,6.24,0,0,1-.71-1.55,1.85,1.85,0,0,0-.37-.72,1.34,1.34,0,0,0-.5-.31,1.3,1.3,0,0,0-1.43.59,1.34,1.34,0,0,0,0,1A8.58,8.58,0,0,0,19.71,47.05Z"/><path class="cls-1" d="M5.67,36.85a1.23,1.23,0,1,0,2.45-.11,10.48,10.48,0,0,1,0-1.46c0-.13,0-.19,0-.27a5.53,5.53,0,0,1,.59-1.6A1.81,1.81,0,0,0,9,32.64a1.21,1.21,0,0,0-.13-.58,1.3,1.3,0,0,0-1.43-.59,1.35,1.35,0,0,0-.74.68A8.64,8.64,0,0,0,5.67,36.85Z"/><path class="cls-1" d="M3,19.71a1.22,1.22,0,1,0,1.81,1.65,11.36,11.36,0,0,1,1-1L6,20.14a5.94,5.94,0,0,1,1.54-.71,1.85,1.85,0,0,0,.72-.37,1.34,1.34,0,0,0,.31-.5A1.3,1.3,0,0,0,8,17.13a1.34,1.34,0,0,0-1,0A8.58,8.58,0,0,0,3,19.71Z"/><path class="cls-1" d="M13.15,5.67a1.23,1.23,0,0,0,.11,2.45,10.49,10.49,0,0,1,1.46,0l.27,0a5.53,5.53,0,0,1,1.6.59,1.81,1.81,0,0,0,.77.24,1.21,1.21,0,0,0,.58-.13,1.3,1.3,0,0,0,.59-1.43,1.35,1.35,0,0,0-.68-.74A8.64,8.64,0,0,0,13.15,5.67Z"/><path class="cls-1" d="M30.29,3a1.22,1.22,0,1,0-1.65,1.81,11.36,11.36,0,0,1,1,1,2.22,2.22,0,0,1,.17.22,5.55,5.55,0,0,1,.72,1.54,1.85,1.85,0,0,0,.37.72,1.34,1.34,0,0,0,.5.31A1.3,1.3,0,0,0,32.87,8a1.34,1.34,0,0,0,0-1A8.58,8.58,0,0,0,30.29,3Z"/><path class="cls-1" d="M44.33,13.15a1.23,1.23,0,1,0-2.45.11,10.49,10.49,0,0,1,0,1.46c0,.13,0,.19,0,.27a5.53,5.53,0,0,1-.59,1.6,1.81,1.81,0,0,0-.24.77,1.21,1.21,0,0,0,.13.58,1.3,1.3,0,0,0,1.43.59,1.35,1.35,0,0,0,.74-.68A8.64,8.64,0,0,0,44.33,13.15Z"/><path class="cls-1" d="M47.05,30.29a1.22,1.22,0,1,0-1.81-1.65,10.19,10.19,0,0,1-1,1l-.21.17a5.82,5.82,0,0,1-1.55.72,1.85,1.85,0,0,0-.72.37,1.34,1.34,0,0,0-.31.5A1.3,1.3,0,0,0,42,32.87a1.34,1.34,0,0,0,1,0A8.58,8.58,0,0,0,47.05,30.29Z"/><path class="cls-1" d="M36.85,44.33a1.23,1.23,0,0,0-.11-2.45,10.48,10.48,0,0,1-1.46,0l-.27,0a5.53,5.53,0,0,1-1.6-.59,1.81,1.81,0,0,0-.77-.24,1.21,1.21,0,0,0-.58.13,1.3,1.3,0,0,0-.59,1.43,1.35,1.35,0,0,0,.68.74A8.64,8.64,0,0,0,36.85,44.33Z"/></svg>