<svg id="Capa_1" data-name="Capa 1" xmlns="http://www.w3.org/2000/svg" viewBox="0 0 50 50"><defs><style>.cls-1{fill:#fff;}</style></defs><path class="cls-1" d="M27.8,49.09l-.42,0Z"/><path class="cls-1" d="M26.57,49.19l-.36,0Z"/><path class="cls-1" d="M22.58,49.13l-.4-.05Z"/><path class="cls-1" d="M49.25,25A24.25,24.25,0,1,0,20.6,48.85q0-9.52,0-19H14V22.5h6.53V15.62a9.37,9.37,0,0,1,4-7.43A9.64,9.64,0,0,1,28.88,6.5a23.51,23.51,0,0,1,3.74-.09,23,23,0,0,1,4,.53v6.72a14,14,0,0,0-3.37,0,9.33,9.33,0,0,0-2.16.43,2.63,2.63,0,0,0-.84.41,2.56,2.56,0,0,0-.88,1.34v6.5h7q-.6,3.69-1.22,7.38H29.25V48.87A24.25,24.25,0,0,0,49.25,25Z"/><path class="cls-1" d="M23.77,49.22l-.33,0Z"/><path class="cls-1" d="M28.91,48.93l-.38.06Z"/><path class="cls-1" d="M21.43,49l-.38-.06Z"/><path class="cls-1" d="M27.38,49.13l-.81.06Q27,49.18,27.38,49.13Z"/><path class="cls-1" d="M29.25,48.88h0l-.34.06Z"/><path class="cls-1" d="M28.53,49l-.73.1Z"/><path class="cls-1" d="M22.18,49.08,21.43,49Z"/><path class="cls-1" d="M20.6,48.85l.45.08-.45-.08Z"/><path class="cls-1" d="M25,49.25c-.41,0-.83,0-1.23,0C24.16,49.24,24.58,49.25,25,49.25Z"/><path class="cls-1" d="M23.44,49.2l-.86-.07Z"/><path class="cls-1" d="M26.21,49.22c-.4,0-.8,0-1.21,0C25.42,49.25,25.82,49.24,26.21,49.22Z"/></svg>