<svg id="Capa_1" data-name="Capa 1" xmlns="http://www.w3.org/2000/svg" viewBox="0 0 50 50"><defs><style>.cls-1{fill:#fff;}</style></defs><path class="cls-1" d="M25,49.25h0Z"/><path class="cls-1" d="M26.48,49.2l-.49,0Z"/><path class="cls-1" d="M24.35,49.23c-.46,0-.9,0-1.34-.07C23.46,49.2,23.9,49.22,24.35,49.23Z"/><path class="cls-1" d="M29,48.91l-.56.09Z"/><path class="cls-1" d="M30.11,48.71l-.45.09Z"/><path class="cls-1" d="M27.62,49.11l-.48,0Z"/><path class="cls-1" d="M22.72,49.14c-.53,0-1-.11-1.51-.19C21.71,49,22.21,49.09,22.72,49.14Z"/><path class="cls-1" d="M31.18,48.45l-.24.06Z"/><path class="cls-1" d="M49.25,25A24.25,24.25,0,1,0,18.48,48.36l0-5.89a15.67,15.67,0,0,1-2.24.21,7.11,7.11,0,0,1-2.34-.16,6.08,6.08,0,0,1-2.34-1.41,4.9,4.9,0,0,1-1.22-1.36c-.32-.55-.25-.7-.66-1.55a6.85,6.85,0,0,0-.89-1.45A6.91,6.91,0,0,0,7.48,35.6a9.45,9.45,0,0,0-1.1-.72.72.72,0,0,1,0-.64A.67.67,0,0,1,6.92,34a4.88,4.88,0,0,1,3,1A5.92,5.92,0,0,1,11,36.09a6.4,6.4,0,0,0,3.05,3,4,4,0,0,0,2.6.33,6.87,6.87,0,0,1,.68-.26c.67-.2.82-.1,1.08-.23.48-.25.46-.86.77-1.86a8.84,8.84,0,0,1,.82-1.8,11.93,11.93,0,0,1-7.61-2.91A11,11,0,0,1,9,27.07a14.21,14.21,0,0,1-.38-3.91,17.76,17.76,0,0,1,.31-3A15.62,15.62,0,0,1,10,17.6a14.65,14.65,0,0,1,1.24-2,8.56,8.56,0,0,1-.52-3.07,8.79,8.79,0,0,1,.94-3.8A11.25,11.25,0,0,1,16.27,10a11.31,11.31,0,0,1,2.16,1.52H19a15.89,15.89,0,0,1,12.47.07l.16-.18C32.9,10,34.56,9.56,36.57,9l.91-.19a1.63,1.63,0,0,1,1,0c.36.14.53.6.7,1.78.31,2.07.45,3.13-.14,4.24a4.1,4.1,0,0,1-.58.82A10.13,10.13,0,0,1,40.55,19a11.39,11.39,0,0,1,.66,4,15.42,15.42,0,0,1-.44,4.34,9.36,9.36,0,0,1-.5,1.5,9.74,9.74,0,0,1-2.65,3.51,10.47,10.47,0,0,1-3.39,1.9,13.6,13.6,0,0,1-4.11.85A5.6,5.6,0,0,1,31,36.54a6,6,0,0,1,.51,2.23q.07,4.75.17,9.53A24.26,24.26,0,0,0,49.25,25Z"/><path class="cls-1" d="M21.1,48.94c-.43-.08-.85-.15-1.24-.24C20.27,48.79,20.69,48.87,21.1,48.94Z"/><path class="cls-1" d="M19.45,48.61l-.77-.2Z"/><path class="cls-1" d="M18.48,48.36l.2,0-.2,0Z"/><path class="cls-1" d="M28.48,49l-.86.11Z"/><path class="cls-1" d="M23,49.16l-.29,0Z"/><path class="cls-1" d="M31.72,48.31h0l-.54.15Z"/><path class="cls-1" d="M30.94,48.51l-.83.2Z"/><path class="cls-1" d="M29.66,48.8l-.62.11Z"/><path class="cls-1" d="M24.59,49.25h.22l-.46,0Z"/><path class="cls-1" d="M21.21,49h0Z"/><path class="cls-1" d="M26,49.23h0Z"/><path class="cls-1" d="M19.86,48.7l-.41-.09Z"/><path class="cls-1" d="M27.14,49.15l-.66.05Z"/></svg>