<svg id="Capa_1" data-name="Capa 1" xmlns="http://www.w3.org/2000/svg" viewBox="0 0 50 50"><defs><style>.cls-1{fill:#fff;}</style></defs><path class="cls-1" d="M25,.75A24.25,24.25,0,1,0,49.25,25,24.25,24.25,0,0,0,25,.75ZM40,14.19c-.1.54-2.05,9.65-4.74,22.1a.83.83,0,0,1,0,.28.85.85,0,0,1-.13.27l-.82.72a.85.85,0,0,1-.29.06.69.69,0,0,1-.33-.06l-7.51-5.39a.09.09,0,0,0,0-.05.09.09,0,0,0-.09,0L21.85,36l-.56,0,.45-7C29,22.39,34.13,17.68,34.4,17.48c0,0,.28-.19.27-.4a.2.2,0,0,0,0-.11c-.07-.12-.31-.15-.58-.07L17.87,27,17,26.76l-6.61-2.17-.26-.3A.88.88,0,0,1,10,23.8a1.08,1.08,0,0,1,.8-.78C26.1,17.08,37.27,12.76,38.06,12.49a1.42,1.42,0,0,1,1,0,1.92,1.92,0,0,1,.55.51,2.08,2.08,0,0,1,.25.38A1.5,1.5,0,0,1,40,14.19Z"/></svg>