<svg id="Capa_1" data-name="Capa 1" xmlns="http://www.w3.org/2000/svg" viewBox="0 0 50 50"><defs><style>.cls-1{fill:#fff;}</style></defs><path class="cls-1" d="M25,.75A24.25,24.25,0,1,0,49.25,25,24.25,24.25,0,0,0,25,.75ZM16.25,39.44l-6.5-.06L9.69,19.5l6.56-.06Zm-3.34-22.5A3.78,3.78,0,0,1,9,13.31a3.77,3.77,0,0,1,3.91-3.62,3.77,3.77,0,0,1,3.9,3.62A3.78,3.78,0,0,1,12.91,16.94Zm27.47,22.5H33.94V26.75a3.74,3.74,0,0,0-7.19.31V39.38H20.31l-.06-19.94H26.5V22a8,8,0,0,1,5.19-3.2,8.1,8.1,0,0,1,7.5,3.44,7.9,7.9,0,0,1,1.19,2.56Z"/></svg>