<svg id="Capa_1" data-name="Capa 1" xmlns="http://www.w3.org/2000/svg" viewBox="0 0 50 50"><defs><style>.cls-1{fill:#fff;}</style></defs><path class="cls-1" d="M25,.75A24.25,24.25,0,1,0,49.25,25,24.25,24.25,0,0,0,25,.75Zm16.65,14c-.41.46-.85.93-1.34,1.41-.65.64-1.29,1.21-1.91,1.71a21.19,21.19,0,0,1-.56,5,20.7,20.7,0,0,1-8.39,12.75,20.17,20.17,0,0,1-17.81,2A18.43,18.43,0,0,1,8.26,36a.19.19,0,0,1,.09-.17.14.14,0,0,1,.1,0,17.75,17.75,0,0,0,6.46-1c.42-.19.85-.44,1.1-.58A15.19,15.19,0,0,0,17.89,33a.21.21,0,0,0-.1-.21.14.14,0,0,0-.12,0,7.73,7.73,0,0,1-5.11-2.89A6.86,6.86,0,0,1,11.62,28a10,10,0,0,0,1.5.06A11,11,0,0,0,14.56,28l-.06-.32A6,6,0,0,1,12.59,27a7.45,7.45,0,0,1-1.19-.78,8.67,8.67,0,0,1-2.34-5.19,8,8,0,0,0,1.75.56c.73.15,1.14.29,1.22.16s-.83-.74-1.6-1.75a6.52,6.52,0,0,1-1.21-4.28,6.67,6.67,0,0,1,.59-2.94,3.56,3.56,0,0,1,.31-.4,18.28,18.28,0,0,0,4.19,4A19.28,19.28,0,0,0,19,18.76a19.48,19.48,0,0,0,5.31,1,.32.32,0,0,0,.09-.15.29.29,0,0,0,0-.19,6.44,6.44,0,0,1-.12-2.22,7.22,7.22,0,0,1,3.28-4.94,7.4,7.4,0,0,1,4-1.13,7.28,7.28,0,0,1,4.81,2c.16,0,.36,0,.59,0a4.71,4.71,0,0,0,.8-.14,5.85,5.85,0,0,0,1-.36,16.39,16.39,0,0,0,1.65-.88h0s.19-.13.29-.07.1.28.09.38a3.92,3.92,0,0,1-1.09,1.78c-1,1-1.62,1.34-1.57,1.47s.71,0,3.41-.9a.15.15,0,0,1,.14.05A.22.22,0,0,1,41.65,14.76Z"/></svg>